<svg width="64" height="64" viewBox="0 0 64 64" fill="none" xmlns="http://www.w3.org/2000/svg">
<path d="M19.8172 7.08833L21.0655 7.15352C21.0666 7.13181 21.0672 7.11007 21.0672 7.08833H19.8172ZM17.2825 55.6212L18.5308 55.6864V55.6864L17.2825 55.6212ZM20.1238 59.66L19.7635 60.8569V60.8569L20.1238 59.66ZM22.5278 60.3838L22.8882 59.1869H22.8882L22.5278 60.3838ZM33.3224 21.7127C33.2456 21.0266 32.6272 20.5327 31.9411 20.6095C31.2551 20.6863 30.7611 21.3047 30.8379 21.9908L32.0802 21.8517L33.3224 21.7127ZM36.0333 57.1709L37.2756 57.0319V57.0319L36.0333 57.1709ZM41.0068 60.5994L41.3188 61.8098V61.8098L41.0068 60.5994ZM43.7402 59.8949L43.4282 58.6845V58.6845L43.7402 59.8949ZM46.738 55.8449L47.9868 55.7897V55.7897L46.738 55.8449ZM44.5832 7.08833H43.3332V7.11594L43.3344 7.14352L44.5832 7.08833ZM27.6501 57.0498L28.8905 57.2048V57.2048L27.6501 57.0498ZM30.807 41.8726C30.8926 41.1875 30.4067 40.5628 29.7217 40.4772C29.0367 40.3915 28.4119 40.8774 28.3263 41.5625L29.5666 41.7175L30.807 41.8726ZM39.8825 7.18152C39.9339 6.49308 39.4176 5.89327 38.7291 5.8418C38.0407 5.79032 37.4409 6.30668 37.3894 6.99512L38.6359 7.08832L39.8825 7.18152ZM44.822 18.0205C45.5122 18.0382 46.086 17.493 46.1037 16.8029C46.1214 16.1128 45.5762 15.539 44.8861 15.5213L44.8541 16.7709L44.822 18.0205ZM26.8797 6.99512C26.8282 6.30668 26.2284 5.79032 25.5399 5.8418C24.8515 5.89327 24.3351 6.49308 24.3866 7.18152L25.6331 7.08832L26.8797 6.99512ZM19.383 15.5213C18.6928 15.539 18.1477 16.1128 18.1654 16.8029C18.1831 17.493 18.7569 18.0382 19.447 18.0205L19.415 16.7709L19.383 15.5213ZM19.8172 7.08833L18.5689 7.02314L16.0342 55.556L17.2825 55.6212L18.5308 55.6864L21.0655 7.15352L19.8172 7.08833ZM20.1238 59.66L19.7635 60.8569L22.1674 61.5807L22.5278 60.3838L22.8882 59.1869L20.4842 58.4631L20.1238 59.66ZM32.0802 21.8517L30.8379 21.9908L34.7911 57.3099L36.0333 57.1709L37.2756 57.0319L33.3224 21.7127L32.0802 21.8517ZM41.0068 60.5994L41.3188 61.8098L44.0522 61.1054L43.7402 59.8949L43.4282 58.6845L40.6948 59.389L41.0068 60.5994ZM46.738 55.8449L47.9868 55.7897L45.832 7.03314L44.5832 7.08833L43.3344 7.14352L45.4892 55.9001L46.738 55.8449ZM27.6501 57.0498L28.8905 57.2048L30.807 41.8726L29.5666 41.7175L28.3263 41.5625L26.4098 56.8947L27.6501 57.0498ZM19.8172 7.08833H21.0672V4.25073H19.8172H18.5672V7.08833H19.8172ZM21.8172 2.25073V3.50073H42.5832V2.25073V1.00073H21.8172V2.25073ZM44.5832 4.25073H43.3332V7.08833H44.5832H45.8332V4.25073H44.5832ZM42.5832 2.25073V3.50073C42.9974 3.50073 43.3332 3.83652 43.3332 4.25073H44.5832H45.8332C45.8332 2.45581 44.3781 1.00073 42.5832 1.00073V2.25073ZM19.8172 4.25073H21.0672C21.0672 3.83652 21.403 3.50073 21.8172 3.50073V2.25073V1.00073C20.0223 1.00073 18.5672 2.4558 18.5672 4.25073H19.8172ZM43.7402 59.8949L44.0522 61.1054C46.4552 60.486 48.0964 58.2688 47.9868 55.7897L46.738 55.8449L45.4892 55.9001C45.5466 57.1986 44.6869 58.3601 43.4282 58.6845L43.7402 59.8949ZM36.0333 57.1709L34.7911 57.3099C35.1462 60.4827 38.2273 62.6066 41.3188 61.8098L41.0068 60.5994L40.6948 59.389C39.0755 59.8063 37.4616 58.6938 37.2756 57.0319L36.0333 57.1709ZM22.5278 60.3838L22.1674 61.5807C25.2799 62.5178 28.4873 60.4301 28.8905 57.2048L27.6501 57.0498L26.4098 56.8947C26.1986 58.5842 24.5185 59.6777 22.8882 59.1869L22.5278 60.3838ZM17.2825 55.6212L16.0342 55.556C15.908 57.971 17.4479 60.1597 19.7635 60.8569L20.1238 59.66L20.4842 58.4631C19.2713 58.0979 18.4647 56.9514 18.5308 55.6864L17.2825 55.6212ZM38.6359 7.08832L37.3894 6.99512C37.2611 8.71172 37.4347 11.3191 38.4351 13.5718C39.4635 15.8873 41.4386 17.9337 44.822 18.0205L44.8541 16.7709L44.8861 15.5213C42.7265 15.4659 41.4741 14.2552 40.7199 12.5571C39.9379 10.7961 39.7739 8.63321 39.8825 7.18152L38.6359 7.08832ZM25.6331 7.08832L24.3866 7.18152C24.4952 8.63321 24.3312 10.7961 23.5491 12.5571C22.795 14.2552 21.5426 15.4659 19.383 15.5213L19.415 16.7709L19.447 18.0205C22.8305 17.9337 24.8056 15.8873 25.8339 13.5718C26.8344 11.3191 27.008 8.71172 26.8797 6.99512L25.6331 7.08832Z" fill="#040037"/>
</svg>
